<svg width="20" height="20" viewBox="0 0 20 20" fill="none" xmlns="http://www.w3.org/2000/svg">
<path fill-rule="evenodd" clip-rule="evenodd" d="M9.99996 1.66666C5.39759 1.66666 1.66663 5.39762 1.66663 9.99999C1.66663 14.6024 5.39759 18.3333 9.99996 18.3333C14.6023 18.3333 18.3333 14.6024 18.3333 9.99999C18.3333 7.78985 17.4553 5.67024 15.8925 4.10743C14.3297 2.54463 12.2101 1.66666 9.99996 1.66666ZM9.99996 16.6667C6.31806 16.6667 3.33329 13.6819 3.33329 9.99999C3.33329 6.31809 6.31806 3.33332 9.99996 3.33332C13.6819 3.33332 16.6666 6.31809 16.6666 9.99999C16.6666 11.7681 15.9642 13.4638 14.714 14.714C13.4638 15.9643 11.7681 16.6667 9.99996 16.6667ZM12.6 7.07499C12.762 6.91618 13.0213 6.91618 13.1833 7.07499L13.6 7.51666C13.6788 7.59489 13.7232 7.70139 13.7232 7.81249C13.7232 7.92359 13.6788 8.03009 13.6 8.10832L8.91663 12.7917C8.84102 12.8722 8.73545 12.9179 8.62496 12.9179C8.51447 12.9179 8.4089 12.8722 8.33329 12.7917L6.37496 10.8167C6.29608 10.7384 6.25171 10.6319 6.25171 10.5208C6.25171 10.4097 6.29608 10.3032 6.37496 10.225L6.81663 9.78332C6.89224 9.70276 6.9978 9.65706 7.10829 9.65706C7.21878 9.65706 7.32435 9.70276 7.39996 9.78332L8.64996 11.025L12.6 7.07499Z" fill="white"/>
</svg>
