<svg width="20" height="20" viewBox="0 0 20 20" fill="none" xmlns="http://www.w3.org/2000/svg">
<path fill-rule="evenodd" clip-rule="evenodd" d="M10 13.3346C9.88953 13.3346 9.78397 13.2889 9.70835 13.2083L4.88335 8.38333C4.80447 8.3051 4.7601 8.1986 4.7601 8.0875C4.7601 7.9764 4.80447 7.8699 4.88335 7.79167L5.05002 7.625C5.12842 7.54362 5.23703 7.49836 5.35002 7.5H7.50002V2.91667C7.50002 2.68655 7.68657 2.5 7.91669 2.5H12.0834C12.3135 2.5 12.5 2.68655 12.5 2.91667V7.5H14.65C14.763 7.49836 14.8716 7.54362 14.95 7.625L15.1167 7.79167C15.1956 7.8699 15.2399 7.9764 15.2399 8.0875C15.2399 8.1986 15.1956 8.3051 15.1167 8.38333L10.2917 13.2083C10.2161 13.2889 10.1105 13.3346 10 13.3346ZM15.8334 16.25V15.4167C15.8334 15.1865 15.6468 15 15.4167 15H4.58335C4.35324 15 4.16669 15.1865 4.16669 15.4167V16.25C4.16669 16.4801 4.35324 16.6667 4.58335 16.6667H15.4167C15.6468 16.6667 15.8334 16.4801 15.8334 16.25Z" fill="#333333"/>
</svg>
