<svg width="14" height="20" viewBox="0 0 14 20" fill="none" xmlns="http://www.w3.org/2000/svg">
<path d="M7.49997 0C7.77612 0 7.99997 0.223858 7.99997 0.5V16.67L12.44 12.22C12.5339 12.1253 12.6617 12.0721 12.795 12.0721C12.9283 12.0721 13.0561 12.1253 13.15 12.22L13.85 12.93C13.9446 13.0239 13.9979 13.1517 13.9979 13.285C13.9979 13.4183 13.9446 13.5461 13.85 13.64L7.71997 19.78C7.57946 19.9207 7.38882 19.9998 7.18997 20H6.80997C6.61156 19.9977 6.4217 19.9189 6.27997 19.78L0.149974 13.64C0.055318 13.5461 0.0020752 13.4183 0.0020752 13.285C0.0020752 13.1517 0.055318 13.0239 0.149974 12.93L0.859974 12.22C0.952138 12.1259 1.07828 12.0729 1.20997 12.0729C1.34166 12.0729 1.46781 12.1259 1.55997 12.22L5.99997 16.67V0.5C5.99997 0.223858 6.22383 0 6.49997 0H7.49997Z" fill="white"/>
</svg>
