<svg width="24" height="24" viewBox="0 0 24 24" fill="none" xmlns="http://www.w3.org/2000/svg">
<path fill-rule="evenodd" clip-rule="evenodd" d="M12 22C17.5228 22 22 17.5228 22 12C22 6.47715 17.5228 2 12 2C6.47715 2 2 6.47715 2 12C2 14.6522 3.05357 17.1957 4.92893 19.0711C6.8043 20.9464 9.34784 22 12 22ZM12 4C16.4183 4 20 7.58172 20 12C20 16.4183 16.4183 20 12 20C7.58172 20 4 16.4183 4 12C4 9.87827 4.84285 7.84344 6.34315 6.34315C7.84344 4.84285 9.87827 4 12 4ZM11.81 18C11.6116 17.9977 11.4217 17.9189 11.28 17.78L8.15 14.65C8.05534 14.5561 8.0021 14.4283 8.0021 14.295C8.0021 14.1617 8.05534 14.0339 8.15 13.94L8.86 13.23C8.95216 13.1359 9.07831 13.0829 9.21 13.0829C9.34169 13.0829 9.46784 13.1359 9.56 13.23L11 14.67V6.5C11 6.22386 11.2239 6 11.5 6H12.5C12.7761 6 13 6.22386 13 6.5V14.67L14.44 13.22C14.5339 13.1253 14.6617 13.0721 14.795 13.0721C14.9283 13.0721 15.0561 13.1253 15.15 13.22L15.85 13.93C15.9447 14.0239 15.9979 14.1517 15.9979 14.285C15.9979 14.4183 15.9447 14.5461 15.85 14.64L12.72 17.78C12.5795 17.9207 12.3888 17.9998 12.19 18H11.81Z" fill="#2B63C0"/>
</svg>
